<?xml version="1.0" encoding="UTF-8" standalone="no"?> <!-- Created with Vectornator for iOS (http://vectornator.io/) --><!DOCTYPE svg PUBLIC "-//W3C//DTD SVG 1.1//EN" "http://www.w3.org/Graphics/SVG/1.1/DTD/svg11.dtd">
<svg height="100%" style="fill-rule:evenodd;clip-rule:evenodd;stroke-linecap:round;stroke-linejoin:round;" xmlns:xlink="http://www.w3.org/1999/xlink" xmlns="http://www.w3.org/2000/svg" xml:space="preserve" width="100%" xmlns:vectornator="http://vectornator.io" version="1.1" viewBox="0 0 1920 274.965">
<metadata>
<vectornator:setting key="DimensionsVisible" value="0"/>
<vectornator:setting key="PencilOnly" value="0"/>
<vectornator:setting key="SnapToPoints" value="0"/>
<vectornator:setting key="OutlineMode" value="0"/>
<vectornator:setting key="CMYKEnabledKey" value="0"/>
<vectornator:setting key="RulersVisible" value="1"/>
<vectornator:setting key="SnapToEdges" value="0"/>
<vectornator:setting key="GuidesVisible" value="0"/>
<vectornator:setting key="DisplayWhiteBackground" value="0"/>
<vectornator:setting key="doHistoryDisabled" value="0"/>
<vectornator:setting key="SnapToGuides" value="1"/>
<vectornator:setting key="TimeLapseWatermarkDisabled" value="0"/>
<vectornator:setting key="Units" value="Points"/>
<vectornator:setting key="DynamicGuides" value="1"/>
<vectornator:setting key="IsolateActiveLayer" value="0"/>
<vectornator:setting key="SnapToGrid" value="0"/>
</metadata>
<defs/>
<g id="Layer_x0020_1" vectornator:layerName="Layer_x0020_1">
<g opacity="1">
<g opacity="1">
<path d="M836.617+22.6489C812.355+22.6489+791.384+31.3052+773.462+48.3741C755.784+31.3052+734.813+22.6489+710.307+22.6489C685.314+22.6489+663.978+31.5491+646.055+49.4714C628.255+67.3936+619.233+88.8516+619.233+114.089L619.233+251.981C644.958+252.347+673.853+232.839+675.316+197.361L675.316+114.089C675.316+104.214+678.73+95.8011+685.558+88.9735C692.385+82.146+700.676+78.7322+710.307+78.7322C720.183+78.7322+728.473+82.146+735.301+88.9735C742.129+95.8011+745.542+104.214+745.542+114.089L745.542+251.981C769.683+252.59+797.968+234.79+801.626+201.872L801.626+114.089C801.626+104.214+805.039+95.8011+811.867+88.9735C818.694+82.146+826.985+78.7322+836.617+78.7322C846.492+78.7322+854.783+82.146+861.61+88.9735C868.438+95.8011+871.852+104.214+871.852+114.089L871.852+251.981C899.406+252.59+925.618+231.376+927.935+197.97L927.935+114.089C927.935+88.8516+919.035+67.3936+901.113+49.4714C883.312+31.5491+861.732+22.6489+836.617+22.6489ZM1012.67+168.344C1009.87+168.344+1007.31+169.441+1005.11+171.757C1002.79+173.952+1001.7+176.634+1001.7+179.682C1001.7+190.533+1005.35+195.898+1012.67+195.898L1033.27+195.898C1071.07+196.141+1091.19+220.647+1090.94+251.981L1012.67+251.981C994.26+251.981+978.532+245.397+965.364+232.23C952.197+219.062+945.613+203.335+945.613+184.925L945.613+179.682C945.613+161.028+952.197+145.179+965.364+132.011C978.532+118.844+994.26+112.26+1012.67+112.26L1076.92+112.26C1073.75+103.116+1070.95+96.7764+1068.39+93.2407C1063.88+87.6324+1057.9+84.7063+1050.34+84.7063L1020.59+84.7063C983.409+84.3405+964.877+54.8359+964.633+28.623L1050.34+28.623C1066.92+28.623+1082.53+34.5971+1097.28+46.3014C1111.42+57.3962+1121.3+70.9293+1126.91+86.9009L1184.82+251.981C1156.29+259.906+1133.74+252.956+1121.3+229.669C1116.91+221.501+1112.64+212.479+1108.86+203.091C1094.84+168.831+1104.11+168.344+1062.17+168.344L1012.67+168.344ZM1270.77+223.817L1312.23+104.457C1316.25+93.2407+1322.59+87.7543+1330.39+84.7063C1357.58+73.9773+1371.6+55.5674+1371.12+28.623L1335.76+28.623C1319.54+28.623+1304.3+34.2313+1290.16+45.448C1275.9+56.5427+1266.02+70.0759+1260.29+85.8036L1202.5+251.981C1231.39+256.736+1255.66+250.884+1270.77+223.817ZM1455.73+55.4455C1455.73+65.321+1452.31+73.7335+1445.36+80.6829C1438.42+87.6324+1430+91.1681+1420.13+91.1681C1410.25+91.1681+1401.84+87.6324+1394.89+80.6829C1387.94+73.7335+1384.53+65.321+1384.53+55.4455C1384.53+45.5699+1387.94+37.1574+1394.89+30.208C1401.84+23.2585+1410.25+19.8447+1420.13+19.8447C1430+19.8447+1438.42+23.2585+1445.36+30.208C1452.31+37.1574+1455.73+45.5699+1455.73+55.4455ZM1448.05+251.615L1448.05+153.713C1440.73+117.137+1418.91+106.042+1392.33+103.482L1392.33+196.263C1392.21+227.231+1413.42+249.421+1448.05+251.615ZM1574.72+23.0147C1604.35+23.0147+1629.46+34.2313+1650.19+56.5427C1670.19+78.1226+1680.18+104.092+1680.18+134.206L1680.18+251.981C1635.68+250.274+1624.71+220.282+1624.71+183.096L1624.71+134.206C1624.71+119.576+1619.95+106.652+1610.44+95.5572C1600.93+84.3405+1588.99+78.7322+1574.72+78.7322C1560.34+78.7322+1548.39+84.3405+1538.88+95.5572C1529.37+106.652+1524.61+119.576+1524.61+134.206L1524.61+199.067C1524+229.669+1502.06+250.762+1469.14+251.981L1469.14+134.206C1469.14+104.092+1479.38+78.0007+1499.74+56.0551C1520.1+33.9875+1544.97+23.0147+1574.72+23.0147Z" fill-rule="evenodd" fill="#365f91" opacity="1"/>
<path d="M1697.62+132.011C1697.62+101.531+1708.35+75.0746+1729.56+53.007C1750.9+30.9395+1776.74+19.8447+1807.1+19.8447L1855.02+19.8447C1872.94+19.8447+1888.3+26.1846+1900.98+38.8643C1913.66+51.6659+1920+66.906+1920+84.8282L1920+95.0695C1920+112.87+1913.66+128.232+1900.98+141.033C1888.3+153.835+1872.94+160.297+1855.02+160.297L1781.01+160.297C1782.47+127.866+1803.81+105.555+1836.61+104.214L1855.02+104.214C1861.23+104.214+1864.28+101.166+1864.28+95.0695C1864.28+88.242+1864.04+84.0967+1863.55+82.6337C1862.58+78.0007+1859.77+75.5623+1855.02+75.5623L1807.1+75.5623C1791.98+75.5623+1779.43+81.1706+1769.18+92.3873C1758.94+103.482+1753.82+116.771+1753.82+132.011C1753.82+147.129+1758.94+160.297+1769.18+171.392C1779.43+182.608+1791.98+188.217+1807.1+188.217L1854.65+188.217C1890.62+188.095+1913.17+215.527+1912.56+244.3L1807.1+244.3C1776.74+244.3+1750.9+233.205+1729.56+211.138C1708.35+189.07+1697.62+162.613+1697.62+132.011Z" fill-rule="evenodd" fill="#365f91" opacity="1"/>
</g>
<g opacity="1">
<g opacity="1">
<path d="M393.802+115.43C389.779+111.407+388.56+78.0007+412.212+48.496C392.339+64.8333+368.687+88.7297+396.241+138.107C401.727+124.208+415.26+111.529+430.622+100.678C451.593+85.9255+451.593+62.0291+423.917+50.081C434.768+40.6931+491.948+16.6748+517.795+43.0096L482.804+22.8927C432.329+26.5504+393.559+55.8112+393.802+115.43Z" fill-rule="evenodd" fill="#365f91" opacity="1"/>
<path d="M482.804+22.8927C482.316+22.6489+491.582+23.2585+492.558+23.2585C496.947+23.6243+501.092+24.2339+505.237+25.0873C525.964+29.2326+544.13+39.4739+559.858+55.8112C580.95+77.7569+591.435+104.092+591.435+134.572C591.435+164.93+580.95+191.021+559.858+213.088C538.766+235.156+513.04+246.251+482.804+246.251C452.446+246.251+426.721+235.156+405.507+213.088C384.415+191.021+373.807+164.93+373.807+134.572C373.807+129.085+374.173+123.843+374.783+118.722C374.783+118.478+409.652+258.808+519.014+224.549C576.073+206.627+581.072+162.491+581.072+162.491C582.901+162.491+573.879+181.999+562.662+192.85C544.252+210.284+508.651+221.501+509.261+216.258C510.114+210.162+515.966+190.167+528.646+173.83C542.179+156.517+561.321+141.887+563.272+119.088C565.466+94.338+555.956+76.4157+556.81+85.0721C559.98+117.869+553.03+130.183+513.894+163.467C481.463+191.265+498.41+222.11+495.606+216.014C474.757+168.587+487.071+142.253+494.874+133.962C563.881+60.2003+515.357+42.6438+482.804+22.8927Z" fill-rule="evenodd" fill="#00b050" opacity="1"/>
</g>
<path d="M113.02+246.616C82.0523+246.616+55.4737+235.765+33.2842+214.064C11.0947+192.24+0+165.905+0+135.059C0+104.092+11.0947+77.6349+33.2842+55.6893C55.4737+33.7436+82.0523+22.8927+113.02+22.8927L179.345+22.8927C179.345+35.2067+174.956+45.6918+166.177+54.3482C157.399+63.0045+146.792+67.2717+134.478+67.2717L113.02+67.2717C94.732+67.2717+79.1262+73.9773+66.3246+87.5105C53.4011+100.922+46.9393+116.771+46.9393+135.059C46.9393+153.225+53.4011+169.075+66.3246+182.243C79.1262+195.532+94.732+202.116+113.02+202.116L134.478+202.116C146.792+202.116+157.399+206.505+166.177+215.161C174.956+223.817+179.345+234.302+179.345+246.616L113.02+246.616ZM306.873+246.616C275.906+246.616+249.327+235.765+227.137+214.064C204.948+192.24+193.853+165.905+193.853+135.059C193.853+104.092+204.948+77.6349+227.137+55.6893C249.327+33.7436+275.906+22.8927+306.873+22.8927L372.832+22.8927C372.832+35.2067+368.565+45.6918+359.787+54.3482C351.13+63.0045+340.645+67.2717+328.331+67.2717L306.873+67.2717C288.341+67.2717+272.614+73.9773+259.69+87.2666C246.767+100.678+240.305+116.527+240.305+135.059C240.305+153.469+246.767+169.319+259.69+182.364C272.614+195.532+288.341+202.116+306.873+202.116L328.331+202.116C340.645+202.116+351.13+206.505+359.787+215.161C368.565+223.817+372.832+234.302+372.832+246.616L306.873+246.616Z" fill-rule="evenodd" fill="#00b050" opacity="1"/>
<path d="M90.5867+113.601L172.517+113.601C172.517+125.915+168.128+136.4+159.35+144.935C150.572+153.469+140.086+157.737+127.772+157.737L90.5867+157.737C84.3688+157.737+79.1262+155.664+74.859+151.519C70.5918+147.251+68.5192+142.131+68.5192+136.035C68.5192+129.695+70.5918+124.33+74.7371+120.063C79.0043+115.796+84.2469+113.601+90.5867+113.601Z" fill-rule="evenodd" fill="#365f91" opacity="1"/>
</g>
</g>
</g>
</svg>
